<mxfile host="app.diagrams.net" modified="2024-02-04T13:43:03.263Z" agent="Mozilla/5.0 (Macintosh; Intel Mac OS X 10_15_7) AppleWebKit/537.36 (KHTML, like Gecko) Chrome/98.0.4758.102 Safari/537.36 QQBrowser/5.0.4.207" version="23.1.1" etag="MDnRt8YzlpMyAXSwjdMT" type="github">
  <diagram name="第 1 页" id="TCKG8KxAgAkP_fxDhuH-">
    <mxGraphModel>
      <root>
        <mxCell id="0" />
        <mxCell id="1" parent="0" />
      </root>
    </mxGraphModel>
  </diagram>
</mxfile>
